<svg width="32" height="32" xmlns="http://www.w3.org/2000/svg">

 <g>
  <title>background</title>
  <rect fill="none" id="canvas_background" height="402" width="582" y="-1" x="-1"/>
 </g>
 <g>
  <title>Layer 1</title>
  <path fill="#fad13d" id="svg_1" d="m29,2.3c-0.4,-0.4 -1,-0.4 -1.4,0l-12.700001,12.8l-12,9.799999c-0.6,0.5 -0.9,1.300001 -0.9,2.1s0.3,1.6 0.9,2.1c0.6,0.6 1.4,0.9 2.2,0.9c0.8,0 1.6,-0.299999 2.3,-0.9l10,-11l6.4,-1.1c0.200001,0 0.400002,-0.1 0.5,-0.299999c2,-1.900001 5.700001,-7.800001 5.700001,-11.700001c0,-1.1 -0.299999,-2.1 -1,-2.7zm-23.1,25.400001c-0.4,0.4 -1.2,0.4 -1.6,0c-0.2,-0.200001 -0.3,-0.400002 -0.3,-0.700001s0.1,-0.5 0.3,-0.6l11,-8.9l-9.4,10.200001zm17.2,-12.6l-6,1l-0.1,-0.200001l0,0l11,-11.2c0,0.1 0,0.2 0,0.4c0,2.8 -2.9,7.9 -4.9,10z"/>
 </g>
</svg>